<svg xmlns="http://www.w3.org/2000/svg" width="1024" height="768" viewBox="0 0 1024 768"><title>Memory Match brand screen</title><defs><radialGradient id="glow"><stop stop-color="#b9dcf5" stop-opacity=".1"/><stop offset="1" stop-color="#b9dcf5" stop-opacity="0"/></radialGradient></defs><rect width="1024" height="768" fill="#0c1410"/><ellipse cx="512" cy="310" rx="440" ry="350" fill="url(#glow)"/><rect x="30" y="30" width="964" height="708" rx="22" fill="none" stroke="#b9dcf5" stroke-opacity=".1"/><g transform="translate(352 112) scale(1.25)"><g fill="none" stroke="#b9dcf5" color="#b9dcf5" stroke-width="8" stroke-linecap="round" stroke-linejoin="round"><rect x="45" y="69" width="94" height="126" rx="16" transform="rotate(-9 92 132)"/><rect x="119" y="56" width="94" height="126" rx="16" transform="rotate(10 166 119)" fill="#101914"/><path d="m166 93 7 17 18 7-18 7-7 18-7-18-18-7 18-7Z"/><circle cx="91" cy="134" r="15"/></g></g><text x="512" y="536" text-anchor="middle" font-family="Arial, Helvetica, sans-serif" font-size="68" font-weight="600" letter-spacing="-2" fill="#eff6f1">Memory Match</text><text x="512" y="590" text-anchor="middle" font-family="Arial, Helvetica, sans-serif" font-size="17" letter-spacing="3" fill="#b9dcf5">A LITTLE FOCUS. ANOTHER CONNECTION.</text><path d="M482 644h60" stroke="#b9dcf5" stroke-width="3" stroke-linecap="round"/><text x="512" y="694" text-anchor="middle" font-family="monospace" font-size="12" letter-spacing="3" fill="#82998b">RAIYAN HAQUE / SELECTED WORK</text></svg>
